<svg width="900" height="700" xmlns="http://www.w3.org/2000/svg">
  <style>
    .node { fill: #e8f5e9; stroke: #2e7d32; stroke-width: 2px; rx: 10px; ry: 10px; }
    .whisper { fill: #fff3e0; stroke: #f57c00; stroke-width: 2px; rx: 10px; ry: 10px; }
    .llm { fill: #e3f2fd; stroke: #1565c0; stroke-width: 2px; rx: 10px; ry: 10px; }
    .ros2 { fill: #fce4ec; stroke: #c2185b; stroke-width: 2px; rx: 10px; ry: 10px; }
    .robot { fill: #f3e5f5; stroke: #7b1fa2; stroke-width: 2px; rx: 10px; ry: 10px; }
    .text { font-family: Arial, sans-serif; font-size: 14px; fill: #000; text-anchor: middle; }
    .arrow { stroke: #444; stroke-width: 2px; marker-end: url(#arrowhead); }
    .title { font-size: 18px; font-weight: bold; }
  </style>

  <defs>
    <marker id="arrowhead" markerWidth="10" markerHeight="7"
      refX="9" refY="3.5" orient="auto">
      <polygon points="0 0, 10 3.5, 0 7" fill="#444" />
    </marker>
  </defs>

  <!-- Title -->
  <text x="450" y="30" class="text title">Vision-Language-Action (VLA) Pipeline</text>

  <!-- Input Layer -->
  <rect x="50" y="80" width="150" height="60" class="node"/>
  <text x="125" y="110" class="text">Voice Command</text>
  <text x="125" y="130" class="text">(Human Input)</text>

  <rect x="50" y="160" width="150" height="60" class="node"/>
  <text x="125" y="190" class="text">Visual Input</text>
  <text x="125" y="210" class="text">(Camera, Sensors)</text>

  <!-- Whisper ASR Component -->
  <rect x="250" y="80" width="180" height="60" class="whisper"/>
  <text x="340" y="110" class="text">Whisper ASR</text>
  <text x="340" y="130" class="text">Speech Recognition</text>

  <!-- Vision Processing -->
  <rect x="250" y="160" width="180" height="60" class="node"/>
  <text x="340" y="190" class="text">Vision Processing</text>
  <text x="340" y="210" class="text">(Object Detection)</text>

  <!-- LLM Cognitive Planning -->
  <rect x="480" y="120" width="180" height="80" class="llm"/>
  <text x="570" y="150" class="text">LLM Cognitive</text>
  <text x="570" y="170" class="text">Planning</text>
  <text x="570" y="190" class="text">(Task Decomposition)</text>

  <!-- ROS 2 Action Graph Generation -->
  <rect x="710" y="120" width="180" height="80" class="ros2"/>
  <text x="800" y="150" class="text">ROS 2 Action</text>
  <text x="800" y="170" class="text">Graph Generation</text>
  <text x="800" y="190" class="text">(Execution Planning)</text>

  <!-- Humanoid Robot -->
  <g transform="translate(800, 300)">
    <!-- Body -->
    <rect x="-40" y="-60" width="80" height="60" class="robot"/>
    <!-- Head -->
    <circle cx="0" cy="-75" r="20" class="robot"/>
    <!-- Arms -->
    <line x1="40" y1="-50" x2="70" y2="-30" stroke="#7b1fa2" stroke-width="6"/>
    <line x1="-40" y1="-50" x2="-70" y2="-30" stroke="#7b1fa2" stroke-width="6"/>
    <!-- Legs -->
    <line x1="15" y1="0" x2="25" y2="40" stroke="#7b1fa2" stroke-width="6"/>
    <line x1="-15" y1="0" x2="-25" y2="40" stroke="#7b1fa2" stroke-width="6"/>
    <!-- Feet -->
    <rect x="15" y="40" width="20" height="8" fill="#7b1fa2"/>
    <rect x="-35" y="40" width="20" height="8" fill="#7b1fa2"/>
    <text x="0" y="70" class="text">Humanoid Robot</text>
  </g>

  <!-- Action Execution -->
  <rect x="600" y="320" width="180" height="60" class="ros2"/>
  <text x="690" y="350" class="text">Action Execution</text>
  <text x="690" y="370" class="text">(Navigation, Manipulation)</text>

  <!-- Feedback Loop -->
  <rect x="400" y="400" width="180" height="60" class="node"/>
  <text x="490" y="430" class="text">Perception Feedback</text>
  <text x="490" y="450" class="text">(Environment State)</text>

  <!-- Arrows -->
  <line x1="200" y1="110" x2="250" y2="110" class="arrow"/>
  <line x1="200" y1="190" x2="250" y2="190" class="arrow"/>

  <line x1="430" y1="110" x2="480" y2="160" class="arrow"/>
  <line x1="430" y1="190" x2="480" y2="180" class="arrow"/>

  <line x1="660" y1="160" x2="710" y2="160" class="arrow"/>

  <line x1="800" y1="200" x2="800" y2="280" class="arrow"/>
  <line x1="800" y1="300" x2="780" y2="320" class="arrow"/>

  <line x1="700" y1="350" x2="600" y2="350" class="arrow"/>
  <line x1="600" y1="350" x2="580" y2="400" class="arrow"/>

  <line x1="490" y1="400" x2="490" y2="220" class="arrow"/>
  <line x1="490" y1="220" x2="480" y2="200" class="arrow"/>

  <!-- Labels -->
  <text x="125" y="60" class="text" font-weight="bold">Input Layer</text>
  <text x="340" y="60" class="text" font-weight="bold">Perception Layer</text>
  <text x="570" y="100" class="text" font-weight="bold">Cognitive Layer</text>
  <text x="800" y="100" class="text" font-weight="bold">Execution Layer</text>
  <text x="800" y="280" class="text" font-weight="bold">Robot Control</text>

  <!-- Legend -->
  <rect x="700" y="500" width="180" height="120" fill="none" stroke="#ccc"/>
  <text x="790" y="520" class="text" font-weight="bold">Legend</text>
  <rect x="710" y="535" width="20" height="15" class="whisper"/>
  <text x="740" y="547" class="text" text-anchor="start">Whisper ASR</text>
  <rect x="710" y="555" width="20" height="15" class="llm"/>
  <text x="740" y="567" class="text" text-anchor="start">LLM Planning</text>
  <rect x="710" y="575" width="20" height="15" class="ros2"/>
  <text x="740" y="587" class="text" text-anchor="start">ROS 2 Action</text>
  <rect x="710" y="595" width="20" height="15" class="robot"/>
  <text x="740" y="607" class="text" text-anchor="start">Robot</text>
</svg>